# Blender v2.82 (sub 7) OBJ File: 'Flower.blend'
# www.blender.org
mtllib Flower.mtl
o Plane
v 0.018407 0.000221 -0.028148
v -0.028149 0.000034 -0.018407
v -0.018407 -0.000221 0.028148
v 0.010902 0.296171 -0.008080
v 0.008059 0.297314 -0.042055
v 0.042762 0.294354 -0.038069
v 0.085651 0.369116 -0.220596
v 0.218482 0.387564 0.026166
v -0.027277 0.400643 0.166328
v 0.081617 0.403975 0.164459
v -0.171284 0.378958 -0.069133
v -0.157570 0.374950 0.083235
v -0.079779 0.348036 -0.217091
v -0.162457 0.350378 -0.136136
v 0.209575 0.357080 -0.138286
v 0.132183 0.383379 0.157418
v 0.116969 0.166628 -0.079932
v 0.117062 0.174617 -0.079540
v 0.202670 0.216601 -0.113595
v -0.055441 0.196255 -0.108080
v -0.089030 0.237453 -0.216866
v -0.001137 0.170420 0.140159
v -0.112761 0.228876 0.193679
v -0.101621 0.229211 0.201919
v 0.028149 -0.000034 0.018407
v 0.012527 0.085525 -0.022860
v -0.022008 0.089198 -0.014294
v -0.013995 0.087675 0.019382
v 0.019903 0.084104 0.011409
v -0.008820 0.152198 -0.009519
v -0.001189 0.156966 0.022627
v 0.008354 0.202067 0.006804
v 0.041341 0.190097 0.012125
v 0.044765 0.193071 -0.020398
v 0.042524 0.296497 -0.010929
v 0.001073 0.247278 -0.039111
v 0.048100 0.315609 -0.080761
v -0.033501 0.369263 -0.221832
v 0.078225 0.312586 -0.003865
v 0.074929 0.331535 -0.004362
v 0.218658 0.374753 -0.079604
v 0.003160 0.313777 0.029918
v 0.045133 0.332730 0.024997
v -0.029604 0.313150 -0.046383
v -0.024345 0.332185 -0.044903
v -0.028541 0.332677 -0.002518
v -0.167792 0.387500 0.027179
v -0.030889 0.312891 -0.000995
v 0.004604 0.332947 0.026025
v -0.095290 0.380784 0.148161
v 0.005027 0.315533 -0.079070
v 0.005751 0.333762 -0.074867
v 0.131811 0.346661 -0.213977
v 0.077878 0.312383 -0.048956
v 0.074966 0.331900 -0.046540
v 0.045571 0.334401 -0.076651
v 0.047884 0.315123 0.030894
v 0.208172 0.372941 0.083445
v 0.028206 0.144540 -0.017725
v 0.057521 0.159181 -0.011626
v 0.058305 0.161569 0.002607
v 0.059676 0.173959 0.000944
v 0.055591 0.173147 -0.010870
v 0.159053 0.168516 -0.034053
v 0.158321 0.176394 -0.035039
v 0.190494 0.214532 -0.126957
v -0.001471 0.215910 -0.035882
v 0.027892 0.236328 -0.041739
v -0.000514 0.220124 -0.056662
v 0.020249 0.215799 -0.051034
v 0.013738 0.219778 -0.064279
v 0.012337 0.236023 -0.065903
v 0.009640 0.196963 -0.146161
v 0.008085 0.217258 -0.140365
v -0.004996 0.236494 -0.059698
v -0.099915 0.236740 -0.208166
v 0.033492 0.142200 0.017986
v 0.008297 0.174766 0.041532
v -0.007498 0.174546 0.033825
v -0.007292 0.191460 0.033376
v 0.007846 0.191581 0.042348
v -0.081952 0.170271 0.084021
v -0.080528 0.182480 0.079177
v -0.001484 0.182661 0.133963
v -0.054747 0.210240 -0.111171
vt 0.271737 0.208543
vt 0.266803 0.209030
vt 0.270213 0.205330
vt 0.263928 0.205988
vt 0.281378 0.205049
vt 0.283745 0.211183
vt 0.279765 0.210680
vt 0.283649 0.217804
vt 0.282475 0.224376
vt 0.276835 0.230314
vt 0.280255 0.222120
vt 0.267669 0.227695
vt 0.266291 0.219337
vt 0.271300 0.215826
vt 0.267010 0.216440
vt 0.282028 0.219788
vt 0.278331 0.216072
vt 0.274131 0.200377
vt 0.276288 0.202644
vt 0.275841 0.209613
vt 0.276817 0.212514
vt 0.274682 0.214651
vt 0.259079 0.225942
vt 0.263807 0.224019
vt 0.261624 0.230978
vt 0.265320 0.233630
vt 0.727632 0.891020
vt 0.699795 0.919007
vt 0.710579 0.889597
vt 0.699891 0.902382
vt 0.272458 0.230423
vt 0.284715 0.232935
vt 0.281784 0.229248
vt 0.286203 0.227714
vt 0.340432 0.681612
vt 0.339091 0.681143
vt 0.339765 0.679046
vt 0.404223 0.201233
vt 0.405334 0.201179
vt 0.405334 0.216264
vt 0.399239 0.203163
vt 0.400982 0.206619
vt 0.284163 0.219439
vt 0.283394 0.220552
vt 0.283363 0.221959
vt 0.401995 0.232758
vt 0.400290 0.232929
vt 0.398291 0.227034
vt 0.284726 0.204830
vt 0.279638 0.199938
vt 0.282423 0.195903
vt 0.280072 0.200651
vt 0.280747 0.200426
vt 0.272388 0.235900
vt 0.268849 0.235439
vt 0.276562 0.236201
vt 0.726707 0.930563
vt 0.738459 0.902609
vt 0.738459 0.918980
vt 0.280762 0.235844
vt 0.278514 0.204300
vt 0.342394 0.609359
vt 0.346724 0.612024
vt 0.348737 0.618659
vt 0.348737 0.607534
vt 0.341322 0.610283
vt 0.355299 0.616063
vt 0.356273 0.619707
vt 0.354260 0.618953
vt 0.357778 0.607037
vt 0.353667 0.618315
vt 0.351567 0.616208
vt 0.336396 0.608524
vt 0.338234 0.619431
vt 0.334042 0.610036
vt 0.338234 0.608244
vt 0.337313 0.610518
vt 0.336962 0.608435
vt 0.328335 0.611457
vt 0.331524 0.617313
vt 0.327210 0.612844
vt 0.326737 0.613464
vt 0.329373 0.609292
vt 0.331524 0.605253
vt 0.330418 0.615405
vt 0.351099 0.675702
vt 0.354742 0.677936
vt 0.356272 0.682599
vt 0.356272 0.674156
vt 0.354044 0.674207
vt 0.353082 0.674376
vt 0.334306 0.678302
vt 0.327714 0.681560
vt 0.327729 0.676841
vt 0.321112 0.678373
vt 0.321081 0.680105
vt 0.334484 0.681031
vt 0.334296 0.680246
vt 0.338519 0.680937
vt 0.341757 0.670676
vt 0.336567 0.679270
vt 0.346656 0.681265
vt 0.347395 0.683992
vt 0.345806 0.683643
vt 0.348631 0.673074
vt 0.345283 0.683275
vt 0.343439 0.681578
vt 0.276735 0.213359
vt 0.277495 0.213766
vt 0.277750 0.212817
vt 0.398101 0.192904
vt 0.399702 0.202833
vt 0.396274 0.193004
vt 0.395146 0.193708
vt 0.393920 0.194244
vt 0.392953 0.206201
vt 0.286203 0.217805
vt 0.398759 0.233242
vt 0.393372 0.228308
vt 0.397014 0.227253
vt 0.395283 0.223237
vt 0.395324 0.234646
vt 0.396998 0.233759
vt 0.394834 0.221550
vt 0.401995 0.224805
vt 0.392445 0.228302
vt 0.271429 0.211389
vt 0.270314 0.210434
vt 0.268809 0.210934
vt 0.270700 0.212630
vt 0.414343 0.236083
vt 0.419277 0.238535
vt 0.418273 0.239238
vt 0.417116 0.234383
vt 0.420177 0.237973
vt 0.421241 0.237706
vt 0.421241 0.230742
vt 0.413811 0.236595
vt 0.416743 0.234577
vt 0.411756 0.228874
vt 0.415591 0.233013
vt 0.710216 0.930610
vt 0.344963 0.608084
vt 0.346135 0.607823
vt 0.357778 0.619441
vt 0.333157 0.610885
vt 0.350439 0.676518
vt 0.334484 0.677559
vt 0.341757 0.681661
vt 0.348631 0.684043
vt 0.399418 0.191839
vt 0.284126 0.223275
vt 0.285543 0.219628
vt 0.267782 0.212017
vt 0.417691 0.239972
vn -0.9462 0.2652 0.1853
vn -0.9306 0.2263 0.2876
vn -0.1878 0.1346 -0.9729
vn -0.2701 -0.3414 -0.9003
vn -0.0650 0.0796 -0.9947
vn -0.9750 0.0602 0.2139
vn -0.9613 0.1042 0.2551
vn -0.2901 -0.8649 -0.4095
vn -0.9547 0.1820 0.2354
vn 0.5151 0.0204 0.8569
vn 0.2522 -0.1388 -0.9577
vn -0.3860 -0.9224 -0.0162
vn -0.3715 -0.9284 -0.0001
vn -0.2958 -0.8883 0.3513
vn -0.0149 0.9999 0.0079
vn -0.0708 0.9973 -0.0186
vn 0.9998 0.0210 0.0071
vn -0.3163 -0.8611 -0.3980
vn 0.9943 0.0119 0.1058
vn 0.1076 -0.0734 -0.9915
vn 0.0825 -0.9808 -0.1768
vn -0.5598 0.0471 -0.8273
vn -0.4009 0.8874 0.2279
vn -0.1466 -0.9681 -0.2031
vn 0.9010 0.0345 -0.4325
vn -0.0598 0.9688 -0.2407
vn -0.2269 0.1207 -0.9664
vn -0.9644 0.1687 0.2039
vn -0.9696 0.0720 0.2339
vn -0.2342 0.0609 -0.9703
vn 0.9758 0.0799 -0.2037
vn 0.9577 -0.2407 -0.1575
vn 0.7787 -0.0058 -0.6274
vn 0.3267 -0.8782 0.3493
vn 0.5558 -0.8201 -0.1360
vn 0.4568 -0.8895 0.0005
vn 0.0180 -0.9058 0.4234
vn 0.0871 0.1533 0.9843
vn 0.0486 0.9988 0.0087
vn -0.0157 -0.8976 -0.4405
vn 0.0028 -1.0000 -0.0061
vn 0.0056 1.0000 0.0081
vn 0.0770 -0.1299 0.9885
vn 0.0026 -0.9342 -0.3568
vn -0.0802 0.2119 0.9740
vn -0.9859 0.1428 0.0873
vn 0.2366 0.0847 0.9679
vn -0.0012 0.9722 0.2341
vn 0.9569 0.0670 0.2826
vn 0.4052 -0.9142 0.0010
vn -0.3650 0.9310 0.0077
vn -0.2468 0.0827 -0.9655
vn 0.0136 -0.8420 0.5392
vn -0.0067 0.8912 -0.4535
vn 0.9585 0.0562 -0.2794
vn -0.4189 -0.9079 -0.0170
vn 0.1717 0.0291 -0.9847
vn 0.3005 0.9536 0.0187
vn 0.2264 0.0480 0.9729
vn -0.2412 -0.9183 0.3139
vn 0.1848 0.9570 -0.2237
vn 0.7849 0.0660 0.6161
vn -0.1582 -0.9784 -0.1332
vn 0.0578 0.9922 0.1103
vn -0.5414 0.0845 0.8365
vn -0.8469 0.0023 -0.5317
vn 0.2454 -0.9620 -0.1196
vn -0.0771 0.9846 0.1571
vn 0.2432 -0.9287 0.2800
vn -0.1946 0.9520 -0.2362
vn 0.5335 0.0707 -0.8429
vn 0.5521 0.0506 0.8323
vn 0.8416 0.5225 0.1364
vn 0.2703 -0.1447 -0.9519
vn 0.1249 -0.9796 0.1575
vn 0.3394 0.0881 0.9365
vn -0.0336 0.9994 -0.0087
vn -0.7559 0.0408 -0.6534
vn 0.3739 -0.8752 -0.3070
vn -0.3236 0.9087 0.2638
vn 0.8281 0.1447 0.5416
vn 0.3475 0.9077 -0.2352
vn 0.8393 -0.0682 -0.5394
vn -0.9965 0.0777 -0.0302
vn 0.1610 -0.9528 0.2574
vn -0.1413 -0.9651 -0.2205
vn 0.9940 0.0781 -0.0764
vn -0.1674 -0.9380 -0.3035
vn -0.6717 -0.0468 0.7393
vn 0.6304 0.2575 -0.7323
vn 0.0121 0.9660 0.2583
vn -0.8816 0.1432 0.4497
vn -0.3476 -0.5893 0.7293
vn -0.8626 0.0050 -0.5059
vn 0.2885 0.9172 0.2747
vn 0.6696 -0.0189 0.7425
vn 0.0338 -0.9986 -0.0408
vn -0.5287 -0.0161 -0.8486
vn -0.0648 0.9938 0.0902
vn 0.9921 0.0779 0.0983
vn -0.2659 -0.8793 0.3952
vn 0.2161 0.9243 -0.3148
vn 0.6329 0.3639 0.6834
vn -0.9771 0.0578 0.2048
vn -0.2048 0.0465 -0.9777
vn 0.9753 0.0784 -0.2067
vn 0.9562 -0.1994 -0.2141
vn 0.6480 -0.1185 -0.7524
vn 0.3972 -0.9146 0.0757
vn 0.3223 -0.8629 -0.3893
vn 0.0456 -0.9147 0.4015
vn 0.0678 0.9976 0.0167
vn -0.0248 -0.8937 -0.4480
vn -0.0153 0.9997 0.0164
vn 0.2195 -0.0861 0.9718
vn -0.0121 -0.9369 -0.3494
vn 0.2034 0.1009 0.9739
vn -0.9671 -0.0201 0.2535
vn -0.0050 0.9717 0.2361
vn 0.4506 -0.8862 0.1081
vn -0.2043 -0.0098 0.9789
vn -0.3081 0.9444 -0.1149
vn 0.0350 -0.8361 0.5474
vn -0.9720 0.0259 -0.2334
vn -0.0350 0.8970 -0.4407
vn -0.4612 -0.8822 0.0950
vn 0.3470 0.9330 -0.0953
vn -0.2550 -0.9168 0.3072
vn -0.5532 0.0015 -0.8331
vn 0.1569 0.9589 -0.2366
vn -0.1305 -0.9692 -0.2089
vn 0.8577 0.0830 -0.5075
vn 0.0793 0.9955 0.0522
vn 0.5654 -0.0178 0.8246
vn -0.1358 0.9907 0.0032
vn 0.2146 -0.9122 0.3491
vn -0.8430 0.0478 0.5359
vn -0.1243 0.9569 -0.2627
vn 0.4218 -0.8977 0.1274
vn 0.5518 0.7970 -0.2456
vn 0.7877 0.1413 -0.5996
vn 0.0837 -0.9959 -0.0358
vn 0.3292 0.1473 0.9327
vn -0.0441 0.9976 -0.0533
vn -0.7427 -0.0665 -0.6663
vn 0.4441 -0.8536 -0.2725
vn -0.1296 0.8936 -0.4299
vn -0.9131 -0.1824 0.3647
vn 0.1348 -0.9459 0.2951
vn 0.9922 0.0980 -0.0770
vn -0.1783 -0.9372 -0.2999
vn 0.0710 0.9830 0.1694
vn -0.1872 -0.6665 0.7216
vn -0.8728 -0.0023 -0.4881
vn -0.1714 0.9456 0.2765
vn 0.6694 -0.0181 0.7427
vn 0.0300 -0.9987 -0.0405
vn -0.5297 -0.2587 -0.8078
vn -0.0633 0.9936 0.0935
vn 0.9944 0.0217 0.1034
vn -0.2718 -0.8781 0.3937
vn -0.9621 0.0041 -0.2725
vn 0.2066 0.9257 -0.3169
vn -0.2259 0.9387 -0.2605
vn -0.7513 0.1778 0.6355
usemtl MaterialFlower
s off
f 31/1/1 32/2/1 30/3/1
f 32/2/2 67/4/2 30/3/2
f 26/5/3 30/6/3 59/7/3
f 30/6/4 67/8/4 59/7/4
f 36/9/5 6/10/5 68/11/5
f 4/12/6 36/13/6 32/14/6
f 36/13/7 67/15/7 32/14/7
f 70/16/8 34/17/8 67/8/8
f 27/18/9 28/19/9 30/3/9
f 77/20/10 61/21/10 33/22/10
f 59/7/11 67/8/11 34/17/11
f 44/23/12 5/24/12 48/25/12
f 5/24/13 4/12/13 48/25/13
f 4/12/14 42/26/14 48/25/14
f 49/27/15 52/28/15 46/29/15
f 52/28/16 45/30/16 46/29/16
f 6/10/17 35/31/17 34/17/17
f 51/32/18 5/33/18 44/34/18
f 34/17/19 35/31/19 33/22/19
f 6/10/20 36/9/20 5/33/20
f 54/35/21 37/36/21 53/37/21
f 17/38/22 18/39/22 66/40/22
f 66/40/23 65/41/23 19/42/23
f 70/16/24 67/8/24 69/43/24
f 71/44/25 72/45/25 70/16/25
f 75/46/26 72/47/26 74/48/26
f 26/5/27 27/49/27 30/6/27
f 28/19/28 31/1/28 30/3/28
f 27/18/29 3/50/29 28/19/29
f 26/5/30 2/51/30 27/49/30
f 26/5/31 25/52/31 1/53/31
f 77/20/32 26/5/32 59/7/32
f 68/11/33 34/17/33 70/16/33
f 35/31/34 39/54/34 57/55/34
f 59/7/35 61/21/35 77/20/35
f 6/10/36 54/56/36 39/54/36
f 4/12/37 57/55/37 42/26/37
f 35/31/38 4/12/38 32/14/38
f 55/57/39 43/58/39 40/59/39
f 37/60/40 5/33/40 51/32/40
f 3/50/41 1/53/41 25/52/41
f 43/58/42 52/28/42 49/27/42
f 31/1/43 29/61/43 77/20/43
f 37/62/44 38/63/44 7/64/44
f 33/22/45 35/31/45 32/14/45
f 4/12/46 5/24/46 36/13/46
f 3/50/47 29/61/47 28/19/47
f 38/63/48 56/65/48 7/64/48
f 7/64/49 56/66/49 37/62/49
f 41/67/50 39/68/50 54/69/50
f 8/70/51 55/71/51 40/72/51
f 55/71/52 41/67/52 54/69/52
f 57/73/53 9/74/53 42/75/53
f 49/76/54 10/77/54 43/78/54
f 43/78/55 10/77/55 57/73/55
f 48/79/56 11/80/56 44/81/56
f 11/80/57 45/82/57 44/81/57
f 11/80/58 46/83/58 45/84/58
f 46/83/59 47/85/59 48/79/59
f 48/86/60 50/87/60 12/88/60
f 46/89/61 50/87/61 49/90/61
f 49/90/62 50/87/62 42/91/62
f 51/92/63 14/93/63 13/94/63
f 52/95/64 14/93/64 45/96/64
f 45/97/65 14/93/65 44/98/65
f 56/99/66 53/37/66 37/36/66
f 15/100/67 54/35/67 53/37/67
f 15/100/68 56/99/68 55/101/68
f 58/102/69 57/103/69 39/104/69
f 16/105/70 40/106/70 43/107/70
f 40/106/71 58/102/71 39/104/71
f 61/21/72 62/108/72 33/22/72
f 33/22/73 63/109/73 34/17/73
f 34/17/74 60/110/74 59/7/74
f 60/111/75 64/112/75 61/113/75
f 61/113/76 65/41/76 62/114/76
f 63/115/77 65/41/77 18/116/77
f 60/111/78 18/39/78 17/38/78
f 66/40/79 64/112/79 17/38/79
f 66/40/80 18/116/80 65/41/80
f 19/42/81 65/41/81 64/112/81
f 72/45/82 36/9/82 68/11/82
f 70/16/83 72/45/83 68/11/83
f 36/117/84 69/43/84 67/8/84
f 71/118/85 20/119/85 73/120/85
f 71/44/86 70/16/86 69/43/86
f 71/118/87 74/48/87 72/47/87
f 20/119/88 21/121/88 73/120/88
f 75/122/89 20/119/89 69/123/89
f 21/121/90 74/48/90 73/120/90
f 74/48/91 76/124/91 85/125/91
f 76/124/92 20/119/92 85/126/92
f 31/1/93 78/127/93 79/128/93
f 31/1/94 80/129/94 32/2/94
f 32/14/95 81/130/95 33/22/95
f 33/22/96 78/127/96 77/20/96
f 22/131/97 79/132/97 78/133/97
f 79/132/98 83/134/98 80/135/98
f 81/136/99 83/134/99 84/137/99
f 78/133/100 84/138/100 22/131/100
f 82/139/101 24/140/101 23/141/101
f 83/134/102 24/140/102 84/137/102
f 84/138/103 24/140/103 22/131/103
f 27/18/104 2/51/104 3/50/104
f 26/5/105 1/53/105 2/51/105
f 26/5/106 29/61/106 25/52/106
f 77/20/107 29/61/107 26/5/107
f 68/11/108 6/10/108 34/17/108
f 35/31/109 6/10/109 39/54/109
f 6/10/110 37/60/110 54/56/110
f 4/12/111 35/31/111 57/55/111
f 55/57/112 56/142/112 43/58/112
f 37/60/113 6/10/113 5/33/113
f 3/50/41 2/51/41 1/53/41
f 43/58/114 56/142/114 52/28/114
f 31/1/115 28/19/115 29/61/115
f 37/62/116 51/143/116 38/63/116
f 3/50/117 25/52/117 29/61/117
f 38/63/118 51/143/118 52/144/118
f 38/63/119 52/144/119 56/65/119
f 41/67/120 8/70/120 39/68/120
f 40/145/121 39/68/121 8/70/121
f 8/70/122 41/67/122 55/71/122
f 57/73/123 10/77/123 9/74/123
f 49/146/124 42/75/124 9/74/124
f 49/76/125 9/74/125 10/77/125
f 48/79/126 47/85/126 11/80/126
f 11/80/127 47/85/127 46/83/127
f 48/86/128 42/91/128 50/87/128
f 46/147/129 48/86/129 12/88/129
f 46/89/130 12/88/130 50/87/130
f 51/92/131 44/98/131 14/93/131
f 52/148/132 51/92/132 13/94/132
f 52/95/133 13/94/133 14/93/133
f 55/149/134 54/35/134 15/100/134
f 15/100/135 53/37/135 56/99/135
f 58/102/136 16/105/136 57/103/136
f 43/150/137 57/103/137 16/105/137
f 16/105/138 58/102/138 40/106/138
f 61/21/139 59/7/139 60/110/139
f 33/22/140 62/108/140 63/109/140
f 34/17/141 63/109/141 60/110/141
f 60/111/142 17/38/142 64/112/142
f 61/113/143 64/112/143 65/41/143
f 63/115/144 62/114/144 65/41/144
f 60/111/145 63/151/145 18/39/145
f 66/40/146 19/42/146 64/112/146
f 72/45/147 75/152/147 36/9/147
f 36/117/148 75/153/148 69/43/148
f 71/118/149 69/123/149 20/119/149
f 71/118/150 73/120/150 74/48/150
f 20/119/151 76/124/151 21/121/151
f 74/48/152 21/121/152 76/124/152
f 31/1/153 77/20/153 78/127/153
f 31/1/154 79/128/154 80/129/154
f 32/2/155 80/129/155 81/154/155
f 33/22/156 81/130/156 78/127/156
f 22/131/157 82/139/157 79/132/157
f 79/132/158 82/139/158 83/134/158
f 81/136/159 80/135/159 83/134/159
f 78/133/160 81/155/160 84/138/160
f 82/139/161 22/131/161 24/140/161
f 83/134/162 82/139/162 23/141/162
f 83/134/163 23/141/163 24/140/163
f 85/125/164 75/46/164 74/48/164
f 85/126/165 20/119/165 75/122/165
